<svg xmlns="http://www.w3.org/2000/svg" xml:space="preserve" fill-rule="evenodd" stroke-linecap="round" stroke-linejoin="round" stroke-miterlimit="1.5" clip-rule="evenodd" viewBox="0 0 64 64">
  <g id="grey">
    <path fill="#fafafa" fill-opacity="0.25" stroke="#2e2e2e" stroke-opacity="0.25" stroke-width="2px" d="M24.5 19.5s2.833-3.289 4-5c1.25-1.833 3.5-6 3.5-6s2.25 4.167 3.5 6c1.167 1.711 4 5 4 5v1s-2.417-.242-3.5.5c-1 .685-3 4-3 4h-2s-1.933-3.304-3-4c-1.093-.713-3.5-.5-3.5-.5v-1Zm0 25v-1s2.407.213 3.5-.5c1.067-.696 3-4 3-4h2s2 3.315 3 4c1.083.742 3.5.5 3.5.5v1s-2.833 3.289-4 5c-1.25 1.833-3.5 6-3.5 6s-2.25-4.167-3.5-6c-1.167-1.711-4-5-4-5Zm20-20s3.289 2.833 5 4c1.833 1.25 6 3.5 6 3.5s-4.167 2.25-6 3.5c-1.711 1.167-5 4-5 4h-1s.242-2.417-.5-3.5c-.685-1-4-3-4-3v-2s3.304-1.933 4-3c.713-1.093.5-3.5.5-3.5h1Zm-25 0h1s-.213 2.407.5 3.5c.696 1.067 4 3 4 3v2s-3.315 2-4 3c-.742 1.083-.5 3.5-.5 3.5h-1s-3.289-2.833-5-4c-1.833-1.25-6-3.5-6-3.5s4.167-2.25 6-3.5c1.711-1.167 5-4 5-4ZM32 28.75a3.251 3.251 0 0 1 0 6.5 3.251 3.251 0 0 1 0-6.5Z"/>
  </g>
  <g id="white">
    <path fill="#fafafa" stroke="#f4f4f4" stroke-width="1px" d="M24.5 19.5s2.833-3.289 4-5c1.25-1.833 3.5-6 3.5-6s2.25 4.167 3.5 6c1.167 1.711 4 5 4 5v1s-2.417-.242-3.5.5c-1 .685-3 4-3 4h-2s-1.933-3.304-3-4c-1.093-.713-3.5-.5-3.5-.5v-1Zm0 25v-1s2.407.213 3.5-.5c1.067-.696 3-4 3-4h2s2 3.315 3 4c1.083.742 3.5.5 3.5.5v1s-2.833 3.289-4 5c-1.25 1.833-3.5 6-3.5 6s-2.25-4.167-3.5-6c-1.167-1.711-4-5-4-5Zm20-20s3.289 2.833 5 4c1.833 1.25 6 3.5 6 3.5s-4.167 2.25-6 3.5c-1.711 1.167-5 4-5 4h-1s.242-2.417-.5-3.5c-.685-1-4-3-4-3v-2s3.304-1.933 4-3c.713-1.093.5-3.5.5-3.5h1Zm-25 0h1s-.213 2.407.5 3.5c.696 1.067 4 3 4 3v2s-3.315 2-4 3c-.742 1.083-.5 3.5-.5 3.5h-1s-3.289-2.833-5-4c-1.833-1.25-6-3.5-6-3.5s4.167-2.25 6-3.5c1.711-1.167 5-4 5-4ZM32 28.75a3.251 3.251 0 0 1 0 6.5 3.251 3.251 0 0 1 0-6.5Z"/>
  </g>
  <g id="green" fill="#88d72a">
    <path d="M32 0c17.661 0 32 14.339 32 32S49.661 64 32 64 0 49.661 0 32 14.339 0 32 0Zm0 2.065C15.478 2.065 2.065 15.478 2.065 32S15.478 61.935 32 61.935 61.935 48.522 61.935 32 48.522 2.065 32 2.065Z"/>
    <path fill-opacity="0.5" d="M32 1.032c17.092 0 30.968 13.876 30.968 30.968S49.092 62.968 32 62.968 1.032 49.092 1.032 32 14.908 1.032 32 1.032Zm0 2.065C16.048 3.097 3.097 16.048 3.097 32c0 15.952 12.951 28.903 28.903 28.903 15.952 0 28.903-12.951 28.903-28.903C60.903 16.048 47.952 3.097 32 3.097Z"/>
    <path fill-opacity="0.25" d="M32 2.065c16.522 0 29.935 13.413 29.935 29.935S48.522 61.935 32 61.935 2.065 48.522 2.065 32 15.478 2.065 32 2.065Zm0 2.064C16.618 4.129 4.129 16.618 4.129 32c0 15.382 12.489 27.871 27.871 27.871 15.382 0 27.871-12.489 27.871-27.871C59.871 16.618 47.382 4.129 32 4.129Z"/>
  </g>
</svg>
