<svg xmlns="http://www.w3.org/2000/svg" xml:space="preserve" fill-rule="evenodd" stroke-linejoin="round" stroke-miterlimit="2" clip-rule="evenodd" viewBox="0 0 64 64">
  <g id="green">
    <path fill="#6ec200" d="M56.08 44a1.92 1.92 0 0 1 3.84 0v8c0 1.06-.86 1.92-1.92 1.92h-8a1.92 1.92 0 0 1 0-3.84h6.08V44Zm-32.12 6.095a1.91 1.91 0 0 1 .24-.015h.48c.081 0 .161.005.24.015a1.91 1.91 0 0 1 .24-.015h.48c.081 0 .161.005.24.015a1.91 1.91 0 0 1 .24-.015h.48c.081 0 .161.005.24.015a1.91 1.91 0 0 1 .24-.015h.48c.081 0 .161.005.24.015a1.91 1.91 0 0 1 .24-.015h.48c.081 0 .161.005.24.015a1.91 1.91 0 0 1 .24-.015h.48c.081 0 .161.005.24.015a1.91 1.91 0 0 1 .24-.015h.48c.081 0 .161.005.24.015a1.91 1.91 0 0 1 .24-.015h.48c.081 0 .161.005.24.015a1.91 1.91 0 0 1 .24-.015h.48c.081 0 .161.005.24.015a1.91 1.91 0 0 1 .24-.015h.48c.081 0 .161.005.24.015a1.91 1.91 0 0 1 .24-.015h.48c.081 0 .161.005.24.015a1.91 1.91 0 0 1 .24-.015h.48c.081 0 .161.005.24.015a1.91 1.91 0 0 1 .24-.015h.48c.081 0 .161.005.24.015a1.91 1.91 0 0 1 .24-.015h.48c.081 0 .161.005.24.015a1.91 1.91 0 0 1 .24-.015h.48c.081 0 .161.005.24.015a1.91 1.91 0 0 1 .24-.015h.48c.081 0 .161.005.24.015a1.91 1.91 0 0 1 .24-.015h.48c.081 0 .161.005.24.015a1.91 1.91 0 0 1 .24-.015H41a1.92 1.92 0 0 1 0 3.84h-.48a1.91 1.91 0 0 1-.24-.015 1.91 1.91 0 0 1-.24.015h-.48a1.91 1.91 0 0 1-.24-.015 1.91 1.91 0 0 1-.24.015h-.48a1.91 1.91 0 0 1-.24-.015 1.91 1.91 0 0 1-.24.015h-.48a1.91 1.91 0 0 1-.24-.015 1.91 1.91 0 0 1-.24.015h-.48a1.91 1.91 0 0 1-.24-.015 1.91 1.91 0 0 1-.24.015h-.48a1.91 1.91 0 0 1-.24-.015 1.91 1.91 0 0 1-.24.015h-.48a1.91 1.91 0 0 1-.24-.015 1.91 1.91 0 0 1-.24.015h-.48a1.91 1.91 0 0 1-.24-.015 1.91 1.91 0 0 1-.24.015h-.48a1.91 1.91 0 0 1-.24-.015 1.91 1.91 0 0 1-.24.015h-.48a1.91 1.91 0 0 1-.24-.015 1.91 1.91 0 0 1-.24.015h-.48a1.91 1.91 0 0 1-.24-.015 1.91 1.91 0 0 1-.24.015h-.48a1.91 1.91 0 0 1-.24-.015 1.91 1.91 0 0 1-.24.015H29a1.91 1.91 0 0 1-.24-.015 1.91 1.91 0 0 1-.24.015h-.48a1.91 1.91 0 0 1-.24-.015 1.91 1.91 0 0 1-.24.015h-.48a1.91 1.91 0 0 1-.24-.015 1.91 1.91 0 0 1-.24.015h-.48a1.91 1.91 0 0 1-.24-.015 1.91 1.91 0 0 1-.24.015h-.48a1.91 1.91 0 0 1-.24-.015 1.91 1.91 0 0 1-.24.015h-.48a1.91 1.91 0 0 1-.24-.015 1.91 1.91 0 0 1-.24.015h-.48a1.92 1.92 0 0 1 0-3.84h.48c.081 0 .161.005.24.015ZM14 50.08a1.92 1.92 0 0 1 0 3.84H6A1.92 1.92 0 0 1 4.08 52v-8a1.92 1.92 0 0 1 3.84 0v6.08H14ZM7.913 26.64c.005.053.007.106.007.16v.32c0 .054-.002.107-.007.16.005.053.007.106.007.16v.32c0 .054-.002.107-.007.16.005.053.007.106.007.16v.32c0 .054-.002.107-.007.16.005.053.007.106.007.16v.32c0 .054-.002.107-.007.16.005.053.007.106.007.16v.32c0 .054-.002.107-.007.16.005.053.007.106.007.16v.32c0 .054-.002.107-.007.16.005.053.007.106.007.16v.32c0 .054-.002.107-.007.16.005.053.007.106.007.16v.32c0 .054-.002.107-.007.16.005.053.007.106.007.16v.32c0 .054-.002.107-.007.16.005.053.007.106.007.16v.32c0 .054-.002.107-.007.16.005.053.007.106.007.16v.32c0 .054-.002.107-.007.16.005.053.007.106.007.16v.32c0 .054-.002.107-.007.16.005.053.007.106.007.16v.32c0 .054-.002.107-.007.16.005.053.007.106.007.16v.32c0 .054-.002.107-.007.16.005.053.007.106.007.16v.32c0 .054-.002.107-.007.16.005.053.007.106.007.16v.32c0 .054-.002.107-.007.16.005.053.007.106.007.16v.32c0 .054-.002.107-.007.16.005.053.007.106.007.16V38a1.92 1.92 0 0 1-3.84 0v-.32c0-.054.002-.107.007-.16a1.698 1.698 0 0 1-.007-.16v-.32c0-.054.002-.107.007-.16a1.698 1.698 0 0 1-.007-.16v-.32c0-.054.002-.107.007-.16a1.698 1.698 0 0 1-.007-.16v-.32c0-.054.002-.107.007-.16a1.698 1.698 0 0 1-.007-.16v-.32c0-.054.002-.107.007-.16a1.698 1.698 0 0 1-.007-.16v-.32c0-.054.002-.107.007-.16a1.698 1.698 0 0 1-.007-.16v-.32c0-.054.002-.107.007-.16a1.698 1.698 0 0 1-.007-.16v-.32c0-.054.002-.107.007-.16a1.698 1.698 0 0 1-.007-.16v-.32c0-.054.002-.107.007-.16a1.698 1.698 0 0 1-.007-.16v-.32c0-.054.002-.107.007-.16a1.698 1.698 0 0 1-.007-.16v-.32c0-.054.002-.107.007-.16a1.698 1.698 0 0 1-.007-.16v-.32c0-.054.002-.107.007-.16a1.698 1.698 0 0 1-.007-.16V30c0-.054.002-.107.007-.16a1.698 1.698 0 0 1-.007-.16v-.32c0-.054.002-.107.007-.16a1.698 1.698 0 0 1-.007-.16v-.32c0-.054.002-.107.007-.16a1.698 1.698 0 0 1-.007-.16v-.32c0-.054.002-.107.007-.16a1.698 1.698 0 0 1-.007-.16v-.32c0-.054.002-.107.007-.16a1.698 1.698 0 0 1-.007-.16v-.32c0-.054.002-.107.007-.16a1.698 1.698 0 0 1-.007-.16v-.32a1.92 1.92 0 0 1 3.84 0v.32c0 .054-.002.107-.007.16ZM7.92 20a1.92 1.92 0 0 1-3.84 0v-8c0-1.06.86-1.92 1.92-1.92h8a1.92 1.92 0 0 1 0 3.84H7.92V20Zm15.8-9.905a1.91 1.91 0 0 1 .24-.015h.48c.081 0 .161.005.24.015a1.91 1.91 0 0 1 .24-.015h.48c.081 0 .161.005.24.015a1.91 1.91 0 0 1 .24-.015h.48c.081 0 .161.005.24.015a1.91 1.91 0 0 1 .24-.015h.48c.081 0 .161.005.24.015a1.91 1.91 0 0 1 .24-.015h.48c.081 0 .161.005.24.015a1.91 1.91 0 0 1 .24-.015h.48c.081 0 .161.005.24.015a1.91 1.91 0 0 1 .24-.015h.48c.081 0 .161.005.24.015a1.91 1.91 0 0 1 .24-.015h.48c.081 0 .161.005.24.015a1.91 1.91 0 0 1 .24-.015h.48c.081 0 .161.005.24.015a1.91 1.91 0 0 1 .24-.015h.48c.081 0 .161.005.24.015a1.91 1.91 0 0 1 .24-.015h.48c.081 0 .161.005.24.015a1.91 1.91 0 0 1 .24-.015H35c.081 0 .161.005.24.015a1.91 1.91 0 0 1 .24-.015h.48c.081 0 .161.005.24.015a1.91 1.91 0 0 1 .24-.015h.48c.081 0 .161.005.24.015a1.91 1.91 0 0 1 .24-.015h.48c.081 0 .161.005.24.015a1.91 1.91 0 0 1 .24-.015h.48c.081 0 .161.005.24.015a1.91 1.91 0 0 1 .24-.015h.48c.081 0 .161.005.24.015a1.91 1.91 0 0 1 .24-.015h.48a1.92 1.92 0 0 1 0 3.84h-.48a1.91 1.91 0 0 1-.24-.015 1.91 1.91 0 0 1-.24.015h-.48a1.91 1.91 0 0 1-.24-.015 1.91 1.91 0 0 1-.24.015h-.48a1.91 1.91 0 0 1-.24-.015 1.91 1.91 0 0 1-.24.015h-.48a1.91 1.91 0 0 1-.24-.015 1.91 1.91 0 0 1-.24.015h-.48a1.91 1.91 0 0 1-.24-.015 1.91 1.91 0 0 1-.24.015h-.48a1.91 1.91 0 0 1-.24-.015 1.91 1.91 0 0 1-.24.015h-.48a1.91 1.91 0 0 1-.24-.015 1.91 1.91 0 0 1-.24.015h-.48a1.91 1.91 0 0 1-.24-.015 1.91 1.91 0 0 1-.24.015h-.48a1.91 1.91 0 0 1-.24-.015 1.91 1.91 0 0 1-.24.015h-.48a1.91 1.91 0 0 1-.24-.015 1.91 1.91 0 0 1-.24.015h-.48a1.91 1.91 0 0 1-.24-.015 1.91 1.91 0 0 1-.24.015h-.48a1.91 1.91 0 0 1-.24-.015 1.91 1.91 0 0 1-.24.015h-.48a1.91 1.91 0 0 1-.24-.015 1.91 1.91 0 0 1-.24.015h-.48a1.91 1.91 0 0 1-.24-.015 1.91 1.91 0 0 1-.24.015h-.48a1.91 1.91 0 0 1-.24-.015 1.91 1.91 0 0 1-.24.015h-.48a1.91 1.91 0 0 1-.24-.015 1.91 1.91 0 0 1-.24.015h-.48a1.91 1.91 0 0 1-.24-.015 1.91 1.91 0 0 1-.24.015h-.48a1.91 1.91 0 0 1-.24-.015 1.91 1.91 0 0 1-.24.015H23a1.92 1.92 0 0 1 0-3.84h.48c.081 0 .161.005.24.015ZM50 13.92a1.92 1.92 0 0 1 0-3.84h8c1.06 0 1.92.86 1.92 1.92v8a1.92 1.92 0 0 1-3.84 0v-6.08H50Zm9.913 12.56c.005.053.007.106.007.16v.32c0 .054-.002.107-.007.16.005.053.007.106.007.16v.32c0 .054-.002.107-.007.16.005.053.007.106.007.16v.32c0 .054-.002.107-.007.16.005.053.007.106.007.16v.32c0 .054-.002.107-.007.16.005.053.007.106.007.16v.32c0 .054-.002.107-.007.16.005.053.007.106.007.16v.32c0 .054-.002.107-.007.16.005.053.007.106.007.16v.32c0 .054-.002.107-.007.16.005.053.007.106.007.16v.32c0 .054-.002.107-.007.16.005.053.007.106.007.16v.32c0 .054-.002.107-.007.16.005.053.007.106.007.16v.32c0 .054-.002.107-.007.16.005.053.007.106.007.16v.32c0 .054-.002.107-.007.16.005.053.007.106.007.16V34c0 .054-.002.107-.007.16.005.053.007.106.007.16v.32c0 .054-.002.107-.007.16.005.053.007.106.007.16v.32c0 .054-.002.107-.007.16.005.053.007.106.007.16v.32c0 .054-.002.107-.007.16.005.053.007.106.007.16v.32c0 .054-.002.107-.007.16.005.053.007.106.007.16v.32c0 .054-.002.107-.007.16.005.053.007.106.007.16v.32a1.92 1.92 0 0 1-3.84 0v-.32c0-.054.002-.107.007-.16a1.698 1.698 0 0 1-.007-.16v-.32c0-.054.002-.107.007-.16a1.698 1.698 0 0 1-.007-.16v-.32c0-.054.002-.107.007-.16a1.698 1.698 0 0 1-.007-.16v-.32c0-.054.002-.107.007-.16a1.698 1.698 0 0 1-.007-.16v-.32c0-.054.002-.107.007-.16a1.698 1.698 0 0 1-.007-.16v-.32c0-.054.002-.107.007-.16a1.698 1.698 0 0 1-.007-.16v-.32c0-.054.002-.107.007-.16a1.698 1.698 0 0 1-.007-.16v-.32c0-.054.002-.107.007-.16a1.698 1.698 0 0 1-.007-.16v-.32c0-.054.002-.107.007-.16a1.698 1.698 0 0 1-.007-.16v-.32c0-.054.002-.107.007-.16a1.698 1.698 0 0 1-.007-.16v-.32c0-.054.002-.107.007-.16a1.698 1.698 0 0 1-.007-.16v-.32c0-.054.002-.107.007-.16a1.698 1.698 0 0 1-.007-.16v-.32c0-.054.002-.107.007-.16a1.698 1.698 0 0 1-.007-.16v-.32c0-.054.002-.107.007-.16a1.698 1.698 0 0 1-.007-.16v-.32c0-.054.002-.107.007-.16a1.698 1.698 0 0 1-.007-.16v-.32c0-.054.002-.107.007-.16a1.698 1.698 0 0 1-.007-.16v-.32c0-.054.002-.107.007-.16a1.698 1.698 0 0 1-.007-.16v-.32c0-.054.002-.107.007-.16a1.698 1.698 0 0 1-.007-.16V26a1.92 1.92 0 0 1 3.84 0v.32c0 .054-.002.107-.007.16Z"/>
  </g>
</svg>
