<svg xmlns="http://www.w3.org/2000/svg" xml:space="preserve" fill-rule="evenodd" clip-rule="evenodd" viewBox="0 0 64 64">
  <g id="blue">
    <path fill="#1abeff" fill-rule="nonzero" d="M32 7.388C18.428 7.388 7.388 18.426 7.388 32c0 13.574 11.04 24.612 24.612 24.612 13.574 0 24.612-11.038 24.612-24.612C56.612 18.426 45.571 7.388 32 7.388Zm0 44.645c-11.732 0-20.033-8.301-20.033-20.033 0-11.732 8.301-20.033 20.033-20.033 11.732 0 20.033 8.301 20.033 20.033 0 11.732-8.301 20.033-20.033 20.033ZM39.823 32a7.824 7.824 0 1 1-15.647-.001A7.824 7.824 0 0 1 39.823 32Z"/>
  </g>
</svg>
