<svg xmlns="http://www.w3.org/2000/svg" xml:space="preserve" fill-rule="evenodd" stroke-linejoin="round" stroke-miterlimit="2" clip-rule="evenodd" viewBox="0 0 64 64">
  <g id="blue">
    <path fill="#1abeff" d="M7.25 18.188A6.403 6.403 0 0 1 1.242 11.8c0-3.532 2.868-6.4 6.4-6.4 3.532 0 6.4 2.868 6.4 6.4a6.405 6.405 0 0 1-4.411 6.084l1.878 17.51c2.612-10.907 8.953-16.11 15.403-17.116 9.015-1.406 18.951 5.433 20.77 17.442l4.888-13.83a6.393 6.393 0 0 1-2.612-5.157c0-3.533 2.868-6.4 6.4-6.4 3.532 0 6.4 2.867 6.4 6.4a6.403 6.403 0 0 1-8.009 6.195l-6.904 19.533a32.914 32.914 0 0 1-.55 3.626 6.794 6.794 0 0 1 3.113 5.713c0 3.753-3.047 6.8-6.8 6.8a6.803 6.803 0 0 1-6.8-6.8 6.804 6.804 0 0 1 6.623-6.798c2.884-14.683-6.728-24.203-15.902-22.772-6.239.973-11.774 7.038-13.011 19.423a6.804 6.804 0 0 1 3.89 6.147c0 3.753-3.047 6.8-6.8 6.8a6.803 6.803 0 0 1-6.8-6.8c0-3.1 2.079-5.718 4.917-6.536L7.25 18.188ZM43.608 49a2.801 2.801 0 0 0 0 5.6 2.801 2.801 0 0 0 0-5.6ZM7.642 8.6a3.202 3.202 0 0 0-3.2 3.2c0 1.766 1.434 3.2 3.2 3.2 1.766 0 3.2-1.434 3.2-3.2 0-1.766-1.434-3.2-3.2-3.2Zm48.716 4.933a3.202 3.202 0 0 0-3.2 3.2c0 1.766 1.434 3.2 3.2 3.2 1.766 0 3.2-1.434 3.2-3.2 0-1.766-1.434-3.2-3.2-3.2ZM11.608 45a2.801 2.801 0 0 0 0 5.6 2.801 2.801 0 0 0 0-5.6Z"/>
  </g>
</svg>
