<svg xmlns="http://www.w3.org/2000/svg" xml:space="preserve" fill-rule="evenodd" stroke-linejoin="round" stroke-miterlimit="2" clip-rule="evenodd" viewBox="0 0 64 64">
  <g id="grey">
    <path fill="#777" d="M26.301 23.844c7.434-.38 13.609.952 18.538 3.909 5.448 3.268 9.42 8.527 11.841 15.834a1.92 1.92 0 0 1-3.25 1.887c-7.691-8.549-17.199-10.366-27.129-6.135v7.899a1.92 1.92 0 0 1-3.278 1.358L7.785 33.358a1.92 1.92 0 0 1 0-2.716l15.238-15.238a1.921 1.921 0 0 1 3.278 1.358v7.082Zm-3.84 2.061v-4.508L11.858 32l10.603 10.603v-4.508c0-.744.43-1.421 1.104-1.738 9.034-4.243 17.804-4.204 25.538.49-1.726-2.403-3.803-4.339-6.239-5.801-4.774-2.864-10.884-3.904-18.309-3.229a1.919 1.919 0 0 1-2.094-1.912Z"/>
  </g>
</svg>
